<svg width="105" height="105" viewBox="0 0 105 105" fill="none" xmlns="http://www.w3.org/2000/svg">
<rect width="105" height="105" fill="#111219"/>
<path d="M44.97 69.63V75H20.31V31.92H26.7V69.63H44.97Z" fill="white"/>
<path d="M70.7 69.93C72.32 69.93 73.7 69.74 74.84 69.36C76 68.98 76.94 68.46 77.66 67.8C78.4 67.14 78.94 66.36 79.28 65.46C79.62 64.54 79.79 63.54 79.79 62.46C79.79 60.32 79.05 58.64 77.57 57.42C76.09 56.18 73.8 55.56 70.7 55.56H61.7V69.93H70.7ZM61.7 36.93V51.03H69.05C72.19 51.03 74.52 50.4 76.04 49.14C77.58 47.86 78.35 46.14 78.35 43.98C78.35 41.52 77.62 39.73 76.16 38.61C74.7 37.49 72.43 36.93 69.35 36.93H61.7ZM69.35 31.92C72.05 31.92 74.36 32.18 76.28 32.7C78.22 33.22 79.81 33.97 81.05 34.95C82.29 35.93 83.2 37.12 83.78 38.52C84.38 39.9 84.68 41.47 84.68 43.23C84.68 44.27 84.52 45.27 84.2 46.23C83.88 47.19 83.39 48.09 82.73 48.93C82.07 49.75 81.24 50.49 80.24 51.15C79.24 51.81 78.06 52.36 76.7 52.8C82.96 54.04 86.09 57.31 86.09 62.61C86.09 64.45 85.75 66.13 85.07 67.65C84.39 69.15 83.4 70.45 82.1 71.55C80.8 72.65 79.2 73.5 77.3 74.1C75.4 74.7 73.24 75 70.82 75H55.31V31.92H69.35Z" fill="#219E47"/>
</svg>
