<svg width="148" height="33" viewBox="0 0 148 33" fill="none" xmlns="http://www.w3.org/2000/svg">
<path d="M14.9869 22.778V26H0.190852V0.151998H4.02485V22.778H14.9869ZM24.5969 7.424C25.9409 7.424 27.1529 7.646 28.2329 8.09C29.3249 8.522 30.2489 9.152 31.0049 9.98C31.7729 10.796 32.3609 11.786 32.7689 12.95C33.1769 14.102 33.3809 15.398 33.3809 16.838C33.3809 18.278 33.1769 19.58 32.7689 20.744C32.3609 21.908 31.7729 22.898 31.0049 23.714C30.2489 24.53 29.3249 25.16 28.2329 25.604C27.1529 26.036 25.9409 26.252 24.5969 26.252C23.2409 26.252 22.0169 26.036 20.9249 25.604C19.8449 25.16 18.9209 24.53 18.1529 23.714C17.3849 22.898 16.7909 21.908 16.3709 20.744C15.9629 19.58 15.7589 18.278 15.7589 16.838C15.7589 15.398 15.9629 14.102 16.3709 12.95C16.7909 11.786 17.3849 10.796 18.1529 9.98C18.9209 9.152 19.8449 8.522 20.9249 8.09C22.0169 7.646 23.2409 7.424 24.5969 7.424ZM24.5969 23.516C26.3249 23.516 27.6149 22.934 28.4669 21.77C29.3189 20.606 29.7449 18.968 29.7449 16.856C29.7449 14.744 29.3189 13.106 28.4669 11.942C27.6149 10.766 26.3249 10.178 24.5969 10.178C22.8449 10.178 21.5369 10.766 20.6729 11.942C19.8209 13.106 19.3949 14.744 19.3949 16.856C19.3949 18.968 19.8209 20.606 20.6729 21.77C21.5369 22.934 22.8449 23.516 24.5969 23.516ZM45.093 7.424C46.437 7.424 47.649 7.646 48.729 8.09C49.821 8.522 50.745 9.152 51.501 9.98C52.269 10.796 52.857 11.786 53.265 12.95C53.673 14.102 53.877 15.398 53.877 16.838C53.877 18.278 53.673 19.58 53.265 20.744C52.857 21.908 52.269 22.898 51.501 23.714C50.745 24.53 49.821 25.16 48.729 25.604C47.649 26.036 46.437 26.252 45.093 26.252C43.737 26.252 42.513 26.036 41.421 25.604C40.341 25.16 39.417 24.53 38.649 23.714C37.881 22.898 37.287 21.908 36.867 20.744C36.459 19.58 36.255 18.278 36.255 16.838C36.255 15.398 36.459 14.102 36.867 12.95C37.287 11.786 37.881 10.796 38.649 9.98C39.417 9.152 40.341 8.522 41.421 8.09C42.513 7.646 43.737 7.424 45.093 7.424ZM45.093 23.516C46.821 23.516 48.111 22.934 48.963 21.77C49.815 20.606 50.241 18.968 50.241 16.856C50.241 14.744 49.815 13.106 48.963 11.942C48.111 10.766 46.821 10.178 45.093 10.178C43.341 10.178 42.033 10.766 41.169 11.942C40.317 13.106 39.891 14.744 39.891 16.856C39.891 18.968 40.317 20.606 41.169 21.77C42.033 22.934 43.341 23.516 45.093 23.516ZM61.3051 21.5C61.8811 22.256 62.4991 22.784 63.1591 23.084C63.8311 23.384 64.5811 23.534 65.4091 23.534C67.0171 23.534 68.2591 22.958 69.1351 21.806C70.0231 20.642 70.4671 18.95 70.4671 16.73C70.4671 15.566 70.3651 14.576 70.1611 13.76C69.9691 12.932 69.6811 12.26 69.2971 11.744C68.9251 11.216 68.4631 10.832 67.9111 10.592C67.3591 10.34 66.7351 10.214 66.0391 10.214C65.0191 10.214 64.1311 10.442 63.3751 10.898C62.6311 11.354 61.9411 12.002 61.3051 12.842V21.5ZM61.1251 10.448C61.5091 9.992 61.9171 9.578 62.3491 9.206C62.7931 8.822 63.2671 8.498 63.7711 8.234C64.2751 7.958 64.8091 7.748 65.3731 7.604C65.9491 7.448 66.5611 7.37 67.2091 7.37C68.2531 7.37 69.1951 7.574 70.0351 7.982C70.8871 8.39 71.6131 8.99 72.2131 9.782C72.8131 10.574 73.2751 11.552 73.5991 12.716C73.9351 13.88 74.1031 15.218 74.1031 16.73C74.1031 18.086 73.9171 19.346 73.5451 20.51C73.1851 21.662 72.6631 22.664 71.9791 23.516C71.3071 24.368 70.4791 25.04 69.4951 25.532C68.5231 26.012 67.4251 26.252 66.2011 26.252C65.1091 26.252 64.1731 26.072 63.3931 25.712C62.6131 25.352 61.9171 24.848 61.3051 24.2V32.138H57.7951V7.712H59.9011C60.3931 7.712 60.6991 7.946 60.8191 8.414L61.1251 10.448ZM88.8271 10.862C88.7311 11.018 88.6291 11.132 88.5211 11.204C88.4131 11.264 88.2751 11.294 88.1071 11.294C87.9151 11.294 87.6991 11.228 87.4591 11.096C87.2311 10.964 86.9491 10.82 86.6131 10.664C86.2891 10.508 85.9051 10.364 85.4611 10.232C85.0171 10.1 84.4891 10.034 83.8771 10.034C83.3731 10.034 82.9111 10.1 82.4911 10.232C82.0831 10.352 81.7351 10.526 81.4471 10.754C81.1591 10.97 80.9371 11.234 80.7811 11.546C80.6251 11.846 80.5471 12.17 80.5471 12.518C80.5471 12.974 80.6791 13.352 80.9431 13.652C81.2191 13.952 81.5731 14.21 82.0051 14.426C82.4491 14.642 82.9471 14.84 83.4991 15.02C84.0631 15.188 84.6331 15.368 85.2091 15.56C85.7971 15.752 86.3671 15.974 86.9191 16.226C87.4831 16.466 87.9811 16.772 88.4131 17.144C88.8571 17.504 89.2111 17.942 89.4751 18.458C89.7511 18.974 89.8891 19.604 89.8891 20.348C89.8891 21.2 89.7331 21.992 89.4211 22.724C89.1211 23.444 88.6711 24.068 88.0711 24.596C87.4831 25.124 86.7511 25.538 85.8751 25.838C84.9991 26.138 83.9971 26.288 82.8691 26.288C81.6091 26.288 80.4451 26.078 79.3771 25.658C78.3091 25.238 77.4151 24.704 76.6951 24.056L77.5231 22.706C77.6191 22.538 77.7391 22.412 77.8831 22.328C78.0271 22.232 78.2191 22.184 78.4591 22.184C78.6871 22.184 78.9211 22.268 79.1611 22.436C79.4011 22.604 79.6891 22.79 80.0251 22.994C80.3611 23.186 80.7691 23.366 81.2491 23.534C81.7291 23.69 82.3291 23.768 83.0491 23.768C83.6491 23.768 84.1711 23.696 84.6151 23.552C85.0591 23.396 85.4251 23.192 85.7131 22.94C86.0131 22.676 86.2351 22.376 86.3791 22.04C86.5231 21.704 86.5951 21.35 86.5951 20.978C86.5951 20.498 86.4571 20.102 86.1811 19.79C85.9171 19.466 85.5631 19.19 85.1191 18.962C84.6871 18.734 84.1891 18.536 83.6251 18.368C83.0611 18.2 82.4851 18.02 81.8971 17.828C81.3091 17.636 80.7331 17.414 80.1691 17.162C79.6051 16.91 79.1011 16.592 78.6571 16.208C78.2251 15.824 77.8711 15.356 77.5951 14.804C77.3311 14.252 77.1991 13.58 77.1991 12.788C77.1991 12.08 77.3431 11.402 77.6311 10.754C77.9311 10.106 78.3571 9.536 78.9091 9.044C79.4731 8.552 80.1631 8.162 80.9791 7.874C81.8071 7.574 82.7491 7.424 83.8051 7.424C85.0171 7.424 86.1091 7.616 87.0811 8C88.0651 8.384 88.9051 8.912 89.6011 9.584L88.8271 10.862Z" fill="white"/>
<path d="M103.644 22.958C104.616 22.958 105.444 22.844 106.128 22.616C106.824 22.388 107.388 22.076 107.82 21.68C108.264 21.284 108.588 20.816 108.792 20.276C108.996 19.724 109.098 19.124 109.098 18.476C109.098 17.192 108.654 16.184 107.766 15.452C106.878 14.708 105.504 14.336 103.644 14.336H98.2436V22.958H103.644ZM98.2436 3.158V11.618H102.654C104.538 11.618 105.936 11.24 106.848 10.484C107.772 9.716 108.234 8.684 108.234 7.388C108.234 5.912 107.796 4.838 106.92 4.166C106.044 3.494 104.682 3.158 102.834 3.158H98.2436ZM102.834 0.151998C104.454 0.151998 105.84 0.307998 106.992 0.619998C108.156 0.931999 109.11 1.382 109.854 1.97C110.598 2.558 111.144 3.272 111.492 4.112C111.852 4.94 112.032 5.882 112.032 6.938C112.032 7.562 111.936 8.162 111.744 8.738C111.552 9.314 111.258 9.854 110.862 10.358C110.466 10.85 109.968 11.294 109.368 11.69C108.768 12.086 108.06 12.416 107.244 12.68C111 13.424 112.878 15.386 112.878 18.566C112.878 19.67 112.674 20.678 112.266 21.59C111.858 22.49 111.264 23.27 110.484 23.93C109.704 24.59 108.744 25.1 107.604 25.46C106.464 25.82 105.168 26 103.716 26H94.4096V0.151998H102.834ZM124.581 7.424C125.925 7.424 127.137 7.646 128.217 8.09C129.309 8.522 130.233 9.152 130.989 9.98C131.757 10.796 132.345 11.786 132.753 12.95C133.161 14.102 133.365 15.398 133.365 16.838C133.365 18.278 133.161 19.58 132.753 20.744C132.345 21.908 131.757 22.898 130.989 23.714C130.233 24.53 129.309 25.16 128.217 25.604C127.137 26.036 125.925 26.252 124.581 26.252C123.225 26.252 122.001 26.036 120.909 25.604C119.829 25.16 118.905 24.53 118.137 23.714C117.369 22.898 116.775 21.908 116.355 20.744C115.947 19.58 115.743 18.278 115.743 16.838C115.743 15.398 115.947 14.102 116.355 12.95C116.775 11.786 117.369 10.796 118.137 9.98C118.905 9.152 119.829 8.522 120.909 8.09C122.001 7.646 123.225 7.424 124.581 7.424ZM124.581 23.516C126.309 23.516 127.599 22.934 128.451 21.77C129.303 20.606 129.729 18.968 129.729 16.856C129.729 14.744 129.303 13.106 128.451 11.942C127.599 10.766 126.309 10.178 124.581 10.178C122.829 10.178 121.521 10.766 120.657 11.942C119.805 13.106 119.379 14.744 119.379 16.856C119.379 18.968 119.805 20.606 120.657 21.77C121.521 22.934 122.829 23.516 124.581 23.516ZM142.656 26.288C141.18 26.288 140.04 25.874 139.236 25.046C138.444 24.218 138.048 23.036 138.048 21.5V10.556H135.924C135.72 10.556 135.546 10.496 135.402 10.376C135.27 10.244 135.204 10.052 135.204 9.8V8.378L138.174 7.964L138.966 2.51C139.014 2.306 139.104 2.15 139.236 2.042C139.38 1.922 139.56 1.862 139.776 1.862H141.558V8H146.742V10.556H141.558V21.266C141.558 21.986 141.732 22.526 142.08 22.886C142.44 23.234 142.896 23.408 143.448 23.408C143.772 23.408 144.048 23.366 144.276 23.282C144.516 23.198 144.72 23.108 144.888 23.012C145.056 22.904 145.2 22.808 145.32 22.724C145.44 22.64 145.548 22.598 145.644 22.598C145.764 22.598 145.854 22.628 145.914 22.688C145.986 22.736 146.058 22.82 146.13 22.94L147.174 24.632C146.598 25.16 145.914 25.568 145.122 25.856C144.33 26.144 143.508 26.288 142.656 26.288Z" fill="#219E47"/>
</svg>
