<svg width="706" height="706" viewBox="0 0 706 706" fill="none" xmlns="http://www.w3.org/2000/svg">
<path d="M266.793 528.567L263.686 149.413L613.196 88.2139L616.303 467.368" stroke="#14151F" stroke-width="18" stroke-linecap="round" stroke-linejoin="round"/>
<path d="M180.012 616.781C228.336 616.385 267.188 576.89 266.793 528.567C266.397 480.244 226.902 441.391 178.579 441.787C130.255 442.183 91.4025 481.677 91.7984 530.001C92.1944 578.324 131.689 617.177 180.012 616.781Z" stroke="#14151F" stroke-width="18" stroke-linecap="round" stroke-linejoin="round"/>
<path d="M529.523 555.582C577.846 555.186 616.699 515.691 616.303 467.368C615.907 419.045 576.412 380.192 528.089 380.588C479.766 380.984 440.913 420.478 441.309 468.802C441.705 517.125 481.199 555.978 529.523 555.582Z" stroke="#14151F" stroke-width="18" stroke-linecap="round" stroke-linejoin="round"/>
</svg>
